ffmpeg started on 2026-03-24 at 13:05:46
Report written to "D:\Convert\FFMetrics\reports\psnr_report-6.txt"
Log level: 32
Command line:
ffmpeg -hide_banner -nostdin -r 24000/1001 -i "F:\\\xc0\xed\xe8\xec\xe5\\LightFamily\\\xcc\xee\xe6\xe5\xf2 \xeb\xe8 \xf1\xf3\xf9\xe5\xf1\xf2\xe2\xee\xe2\xe0\xf2\xfc \xe4\xf0\xf3\xe6\xe1\xe0 \xec\xe5\xe6\xe4\xf3 \xec\xf3\xe6\xf7\xe8\xed\xee\xe9 \xe8 \xe6\xe5\xed\xf9\xe8\xed\xee\xe9 (\xcd\xe5\xf2, \xfd\xf2\xee \xed\xe5 \xf2\xe0\xea!)\\LightFamilyDUB_\xcc\xee\xe6\xe5\xf2_\xeb\xe8_\xf1\xf3\xf9\xe5\xf1\xf2\xe2\xee\xe2\xe0\xf2\xfc_\xe4\xf0\xf3\xe6\xe1\xe0_\xec\xe5\xe6\xe4\xf3_\xef\xe0\xf0\xed\xe5\xec_\xe8_\xe4\xe5\xe2\xf3\xf8\xea\xee\xe9_10_HEVC.mkv" -r 24000/1001 -i "F:\\\xc0\xed\xe8\xec\xe5\\LightFamily\\\xcc\xee\xe6\xe5\xf2 \xeb\xe8 \xf1\xf3\xf9\xe5\xf1\xf2\xe2\xee\xe2\xe0\xf2\xfc \xe4\xf0\xf3\xe6\xe1\xe0 \xec\xe5\xe6\xe4\xf3 \xec\xf3\xe6\xf7\xe8\xed\xee\xe9 \xe8 \xe6\xe5\xed\xf9\xe8\xed\xee\xe9 (\xcd\xe5\xf2, \xfd\xf2\xee \xed\xe5 \xf2\xe0\xea!)\\LightFamilyDUB_\xcc\xee\xe6\xe5\xf2_\xeb\xe8_\xf1\xf3\xf9\xe5\xf1\xf2\xe2\xee\xe2\xe0\xf2\xfc_\xe4\xf0\xf3\xe6\xe1\xe0_\xec\xe5\xe6\xe4\xf3_\xef\xe0\xf0\xed\xe5\xec_\xe8_\xe4\xe5\xe2\xf3\xf8\xea\xee\xe9_10.mp4" -lavfi "[0:v]settb=AVTB,setpts=PTS-STARTPTS,format=pix_fmts=yuv420p10le,fps=24000/1001,scale=1920:1080:flags=lanczos:param0=3:out_range=limited:out_color_matrix=bt709:out_chroma_loc=left,setsar=1/1,setdar=(1920/1080)*(1/1),colorspace=format=yuv420p10:range=tv:primaries=bt709:trc=bt709:space=bt709:fast=0[main];[1:v]settb=AVTB,setpts=PTS-STARTPTS,format=pix_fmts=yuv420p,fps=24000/1001,scale=1920:1080:flags=lanczos:param0=3:out_range=limited:out_color_matrix=bt709:out_chroma_loc=left,setsar=1/1,setdar=(1920/1080)*(1/1),colorspace=format=yuv420p:range=tv:primaries=bt709:trc=bt709:space=bt709:fast=0[ref];[main][ref]psnr=eof_action=endall:stats_file='D\\:/Convert/FFMetrics/logs/psnr_logfile-6.txt'" -f null -
Input #0, matroska,webm, from 'F:\Аниме\LightFamily\Может ли существовать дружба между мужчиной и женщиной (Нет, это не так!)\LightFamilyDUB_Может_ли_существовать_дружба_между_парнем_и_девушкой_10_HEVC.mkv':
  Metadata:
    COMPATIBLE_BRANDS: mp42mp41
    MAJOR_BRAND     : mp42
    MINOR_VERSION   : 0
    ENCODER         : Lavf61.7.100
  Duration: 00:23:40.33, start: -0.021000, bitrate: 1103 kb/s
  Stream #0:0(eng): Video: hevc (Main 10), yuv420p10le(tv, bt709, progressive), 1920x1080 [SAR 1:1 DAR 16:9], 23.98 fps, 23.98 tbr, 1k tbn (default)
      Metadata:
        HANDLER_NAME    : Mainconcept Video Media Handler
        VENDOR_ID       : [0][0][0][0]
        ENCODER         : Lavc61.19.100 libx265
        BPS             : 906445
        DURATION        : 00:23:40.293708333
        NUMBER_OF_FRAMES: 34053
        NUMBER_OF_BYTES : 160927216
        _STATISTICS_WRITING_APP: mkvpropedit v94.0 ('Initiate') 64-bit
        _STATISTICS_WRITING_DATE_UTC: 2026-03-23 14:37:51
        _STATISTICS_TAGS: BPS DURATION NUMBER_OF_FRAMES NUMBER_OF_BYTES
  Stream #0:1(eng): Audio: aac (LC), 48000 Hz, stereo, fltp (default)
      Metadata:
        HANDLER_NAME    : #Mainconcept MP4 Sound Media Handler
        VENDOR_ID       : [0][0][0][0]
        ENCODER         : Lavc61.19.100 aac
        BPS             : 193126
        DURATION        : 00:23:40.309000000
        NUMBER_OF_FRAMES: 66578
        NUMBER_OF_BYTES : 34287450
        _STATISTICS_WRITING_APP: mkvpropedit v94.0 ('Initiate') 64-bit
        _STATISTICS_WRITING_DATE_UTC: 2026-03-23 14:37:51
        _STATISTICS_TAGS: BPS DURATION NUMBER_OF_FRAMES NUMBER_OF_BYTES
Input #1, mov,mp4,m4a,3gp,3g2,mj2, from 'F:\Аниме\LightFamily\Может ли существовать дружба между мужчиной и женщиной (Нет, это не так!)\LightFamilyDUB_Может_ли_существовать_дружба_между_парнем_и_девушкой_10.mp4':
  Metadata:
    major_brand     : mp42
    minor_version   : 0
    compatible_brands: mp42mp41
    creation_time   : 2026-01-29T19:53:28.000000Z
  Duration: 00:23:40.29, start: 0.000000, bitrate: 8388 kb/s
  Stream #1:0[0x1](eng): Video: h264 (Main) (avc1 / 0x31637661), yuv420p(tv, bt709, progressive), 1920x1080, 8003 kb/s, 23.98 fps, 23.98 tbr, 24k tbn (default)
      Metadata:
        creation_time   : 2026-01-29T19:53:28.000000Z
        handler_name    : Mainconcept Video Media Handler
        vendor_id       : [0][0][0][0]
        encoder         : AVC Coding
  Stream #1:1[0x2](eng): Audio: aac (LC) (mp4a / 0x6134706D), 48000 Hz, stereo, fltp, 381 kb/s (default)
      Metadata:
        creation_time   : 2026-01-29T19:53:28.000000Z
        handler_name    : #Mainconcept MP4 Sound Media Handler
        vendor_id       : [0][0][0][0]
Stream mapping:
  Stream #0:0 (hevc) -> settb:default
  Stream #1:0 (h264) -> settb:default
  psnr:default -> Stream #0:0 (wrapped_avframe)
  Stream #0:1 -> #0:1 (aac (native) -> pcm_s16le (native))
Output #0, null, to 'pipe:':
  Metadata:
    COMPATIBLE_BRANDS: mp42mp41
    MAJOR_BRAND     : mp42
    MINOR_VERSION   : 0
    encoder         : Lavf61.7.100
  Stream #0:0: Video: wrapped_avframe, yuv420p10le(tv, bt709, progressive), 1920x1080 [SAR 1:1 DAR 16:9], q=2-31, 200 kb/s, 23.98 fps, 23.98 tbn
      Metadata:
        encoder         : Lavc61.19.100 wrapped_avframe
  Stream #0:1(eng): Audio: pcm_s16le, 48000 Hz, stereo, s16, 1536 kb/s (default)
      Metadata:
        HANDLER_NAME    : #Mainconcept MP4 Sound Media Handler
        VENDOR_ID       : [0][0][0][0]
        _STATISTICS_TAGS: BPS DURATION NUMBER_OF_FRAMES NUMBER_OF_BYTES
        BPS             : 193126
        DURATION        : 00:23:40.309000000
        NUMBER_OF_FRAMES: 66578
        NUMBER_OF_BYTES : 34287450
        _STATISTICS_WRITING_APP: mkvpropedit v94.0 ('Initiate') 64-bit
        _STATISTICS_WRITING_DATE_UTC: 2026-03-23 14:37:51
        encoder         : Lavc61.19.100 pcm_s16le
frame=  141 fps=0.0 q=-0.0 size=N/A time=00:00:05.88 bitrate=N/A speed=11.7x    frame=  297 fps=288 q=-0.0 size=N/A time=00:00:12.38 bitrate=N/A speed=  12x    frame=  441 fps=286 q=-0.0 size=N/A time=00:00:18.39 bitrate=N/A speed=11.9x    frame=  619 fps=302 q=-0.0 size=N/A time=00:00:25.81 bitrate=N/A speed=12.6x    frame=  806 fps=313 q=-0.0 size=N/A time=00:00:33.61 bitrate=N/A speed=  13x    frame=  971 fps=314 q=-0.0 size=N/A time=00:00:40.49 bitrate=N/A speed=13.1x    frame= 1148 fps=319 q=-0.0 size=N/A time=00:00:47.88 bitrate=N/A speed=13.3x    frame= 1311 fps=318 q=-0.0 size=N/A time=00:00:54.67 bitrate=N/A speed=13.3x    frame= 1476 fps=318 q=-0.0 size=N/A time=00:01:01.56 bitrate=N/A speed=13.3x    frame= 1626 fps=316 q=-0.0 size=N/A time=00:01:07.81 bitrate=N/A speed=13.2x    frame= 1806 fps=318 q=-0.0 size=N/A time=00:01:15.32 bitrate=N/A speed=13.3x    frame= 1977 fps=320 q=-0.0 size=N/A time=00:01:22.45 bitrate=N/A speed=13.3x    frame= 2145 fps=320 q=-0.0 size=N/A time=00:01:29.46 bitrate=N/A speed=13.4x    frame= 2315 fps=321 q=-0.0 size=N/A time=00:01:36.55 bitrate=N/A speed=13.4x    frame= 2517 fps=326 q=-0.0 size=N/A time=00:01:44.97 bitrate=N/A speed=13.6x    frame= 2706 fps=328 q=-0.0 size=N/A time=00:01:52.86 bitrate=N/A speed=13.7x    frame= 2908 fps=332 q=-0.0 size=N/A time=00:02:01.28 bitrate=N/A speed=13.9x    frame= 3107 fps=335 q=-0.0 size=N/A time=00:02:09.58 bitrate=N/A speed=  14x    frame= 3284 fps=335 q=-0.0 size=N/A time=00:02:16.97 bitrate=N/A speed=  14x    frame= 3481 fps=338 q=-0.0 size=N/A time=00:02:25.18 bitrate=N/A speed=14.1x    frame= 3663 fps=339 q=-0.0 size=N/A time=00:02:32.77 bitrate=N/A speed=14.1x    frame= 3852 fps=340 q=-0.0 size=N/A time=00:02:40.66 bitrate=N/A speed=14.2x    frame= 4040 fps=341 q=-0.0 size=N/A time=00:02:48.50 bitrate=N/A speed=14.2x    frame= 4237 fps=343 q=-0.0 size=N/A time=00:02:56.71 bitrate=N/A speed=14.3x    frame= 4424 fps=344 q=-0.0 size=N/A time=00:03:04.51 bitrate=N/A speed=14.3x    frame= 4620 fps=345 q=-0.0 size=N/A time=00:03:12.69 bitrate=N/A speed=14.4x    frame= 4806 fps=345 q=-0.0 size=N/A time=00:03:20.45 bitrate=N/A speed=14.4x    frame= 4999 fps=347 q=-0.0 size=N/A time=00:03:28.49 bitrate=N/A speed=14.5x    frame= 5194 fps=347 q=-0.0 size=N/A time=00:03:36.63 bitrate=N/A speed=14.5x    frame= 5382 fps=348 q=-0.0 size=N/A time=00:03:44.47 bitrate=N/A speed=14.5x    frame= 5570 fps=348 q=-0.0 size=N/A time=00:03:52.31 bitrate=N/A speed=14.5x    frame= 5766 fps=350 q=-0.0 size=N/A time=00:04:00.49 bitrate=N/A speed=14.6x    frame= 5960 fps=350 q=-0.0 size=N/A time=00:04:08.58 bitrate=N/A speed=14.6x    frame= 6152 fps=351 q=-0.0 size=N/A time=00:04:16.58 bitrate=N/A speed=14.6x    frame= 6345 fps=352 q=-0.0 size=N/A time=00:04:24.63 bitrate=N/A speed=14.7x    frame= 6536 fps=352 q=-0.0 size=N/A time=00:04:32.60 bitrate=N/A speed=14.7x    frame= 6734 fps=353 q=-0.0 size=N/A time=00:04:40.86 bitrate=N/A speed=14.7x    frame= 6932 fps=354 q=-0.0 size=N/A time=00:04:49.12 bitrate=N/A speed=14.8x    frame= 7120 fps=354 q=-0.0 size=N/A time=00:04:56.96 bitrate=N/A speed=14.8x    frame= 7301 fps=354 q=-0.0 size=N/A time=00:05:04.51 bitrate=N/A speed=14.8x    frame= 7498 fps=355 q=-0.0 size=N/A time=00:05:12.72 bitrate=N/A speed=14.8x    frame= 7683 fps=355 q=-0.0 size=N/A time=00:05:20.44 bitrate=N/A speed=14.8x    frame= 7860 fps=355 q=-0.0 size=N/A time=00:05:27.82 bitrate=N/A speed=14.8x    frame= 8047 fps=355 q=-0.0 size=N/A time=00:05:35.62 bitrate=N/A speed=14.8x    frame= 8243 fps=355 q=-0.0 size=N/A time=00:05:43.80 bitrate=N/A speed=14.8x    frame= 8428 fps=355 q=-0.0 size=N/A time=00:05:51.51 bitrate=N/A speed=14.8x    frame= 8618 fps=356 q=-0.0 size=N/A time=00:05:59.44 bitrate=N/A speed=14.8x    frame= 8804 fps=356 q=-0.0 size=N/A time=00:06:07.20 bitrate=N/A speed=14.8x    frame= 8980 fps=356 q=-0.0 size=N/A time=00:06:14.54 bitrate=N/A speed=14.8x    frame= 9172 fps=356 q=-0.0 size=N/A time=00:06:22.54 bitrate=N/A speed=14.8x    frame= 9365 fps=356 q=-0.0 size=N/A time=00:06:30.59 bitrate=N/A speed=14.9x    frame= 9558 fps=357 q=-0.0 size=N/A time=00:06:38.64 bitrate=N/A speed=14.9x    frame= 9754 fps=357 q=-0.0 size=N/A time=00:06:46.82 bitrate=N/A speed=14.9x    frame= 9950 fps=358 q=-0.0 size=N/A time=00:06:54.99 bitrate=N/A speed=14.9x    frame=10148 fps=358 q=-0.0 size=N/A time=00:07:03.25 bitrate=N/A speed=14.9x    frame=10339 fps=358 q=-0.0 size=N/A time=00:07:11.22 bitrate=N/A speed=14.9x    frame=10539 fps=359 q=-0.0 size=N/A time=00:07:19.56 bitrate=N/A speed=  15x    frame=10731 fps=359 q=-0.0 size=N/A time=00:07:27.57 bitrate=N/A speed=  15x    frame=10922 fps=359 q=-0.0 size=N/A time=00:07:35.53 bitrate=N/A speed=  15x    frame=11116 fps=359 q=-0.0 size=N/A time=00:07:43.62 bitrate=N/A speed=  15x    frame=11304 fps=359 q=-0.0 size=N/A time=00:07:51.47 bitrate=N/A speed=  15x    frame=11497 fps=360 q=-0.0 size=N/A time=00:07:59.52 bitrate=N/A speed=  15x    frame=11684 fps=360 q=-0.0 size=N/A time=00:08:07.32 bitrate=N/A speed=  15x    frame=11866 fps=360 q=-0.0 size=N/A time=00:08:14.91 bitrate=N/A speed=  15x    frame=12046 fps=360 q=-0.0 size=N/A time=00:08:22.41 bitrate=N/A speed=  15x    frame=12246 fps=360 q=-0.0 size=N/A time=00:08:30.76 bitrate=N/A speed=  15x    frame=12439 fps=360 q=-0.0 size=N/A time=00:08:38.80 bitrate=N/A speed=  15x    frame=12628 fps=360 q=-0.0 size=N/A time=00:08:46.69 bitrate=N/A speed=  15x    frame=12800 fps=360 q=-0.0 size=N/A time=00:08:53.86 bitrate=N/A speed=  15x    frame=12990 fps=360 q=-0.0 size=N/A time=00:09:01.79 bitrate=N/A speed=  15x    frame=13175 fps=360 q=-0.0 size=N/A time=00:09:09.50 bitrate=N/A speed=  15x    frame=13365 fps=360 q=-0.0 size=N/A time=00:09:17.43 bitrate=N/A speed=  15x    frame=13560 fps=360 q=-0.0 size=N/A time=00:09:25.56 bitrate=N/A speed=  15x    frame=13750 fps=360 q=-0.0 size=N/A time=00:09:33.48 bitrate=N/A speed=  15x    frame=13936 fps=360 q=-0.0 size=N/A time=00:09:41.24 bitrate=N/A speed=  15x    frame=14130 fps=361 q=-0.0 size=N/A time=00:09:49.33 bitrate=N/A speed=  15x    frame=14328 fps=361 q=-0.0 size=N/A time=00:09:57.59 bitrate=N/A speed=  15x    frame=14515 fps=361 q=-0.0 size=N/A time=00:10:05.39 bitrate=N/A speed=15.1x    frame=14692 fps=361 q=-0.0 size=N/A time=00:10:12.77 bitrate=N/A speed=  15x    frame=14890 fps=361 q=-0.0 size=N/A time=00:10:21.03 bitrate=N/A speed=15.1x    frame=15083 fps=361 q=-0.0 size=N/A time=00:10:29.08 bitrate=N/A speed=15.1x    frame=15267 fps=361 q=-0.0 size=N/A time=00:10:36.76 bitrate=N/A speed=15.1x    frame=15457 fps=361 q=-0.0 size=N/A time=00:10:44.68 bitrate=N/A speed=15.1x    frame=15645 fps=361 q=-0.0 size=N/A time=00:10:52.52 bitrate=N/A speed=15.1x    frame=15832 fps=361 q=-0.0 size=N/A time=00:11:00.32 bitrate=N/A speed=15.1x    frame=16025 fps=361 q=-0.0 size=N/A time=00:11:08.37 bitrate=N/A speed=15.1x    frame=16213 fps=361 q=-0.0 size=N/A time=00:11:16.21 bitrate=N/A speed=15.1x    frame=16403 fps=361 q=-0.0 size=N/A time=00:11:24.14 bitrate=N/A speed=15.1x    frame=16600 fps=362 q=-0.0 size=N/A time=00:11:32.35 bitrate=N/A speed=15.1x    frame=16791 fps=362 q=-0.0 size=N/A time=00:11:40.32 bitrate=N/A speed=15.1x    frame=16990 fps=362 q=-0.0 size=N/A time=00:11:48.62 bitrate=N/A speed=15.1x    frame=17173 fps=362 q=-0.0 size=N/A time=00:11:56.25 bitrate=N/A speed=15.1x    frame=17373 fps=362 q=-0.0 size=N/A time=00:12:04.59 bitrate=N/A speed=15.1x    frame=17568 fps=362 q=-0.0 size=N/A time=00:12:12.73 bitrate=N/A speed=15.1x    frame=17758 fps=362 q=-0.0 size=N/A time=00:12:20.65 bitrate=N/A speed=15.1x    frame=17948 fps=363 q=-0.0 size=N/A time=00:12:28.58 bitrate=N/A speed=15.1x    frame=18152 fps=363 q=-0.0 size=N/A time=00:12:37.08 bitrate=N/A speed=15.1x    frame=18338 fps=363 q=-0.0 size=N/A time=00:12:44.84 bitrate=N/A speed=15.1x    frame=18522 fps=363 q=-0.0 size=N/A time=00:12:52.52 bitrate=N/A speed=15.1x    frame=18720 fps=363 q=-0.0 size=N/A time=00:13:00.78 bitrate=N/A speed=15.1x    frame=18912 fps=363 q=-0.0 size=N/A time=00:13:08.78 bitrate=N/A speed=15.1x    frame=19113 fps=363 q=-0.0 size=N/A time=00:13:17.17 bitrate=N/A speed=15.1x    frame=19302 fps=363 q=-0.0 size=N/A time=00:13:25.05 bitrate=N/A speed=15.2x    frame=19502 fps=363 q=-0.0 size=N/A time=00:13:33.39 bitrate=N/A speed=15.2x    frame=19685 fps=363 q=-0.0 size=N/A time=00:13:41.02 bitrate=N/A speed=15.2x    frame=19880 fps=364 q=-0.0 size=N/A time=00:13:49.16 bitrate=N/A speed=15.2x    frame=20074 fps=364 q=-0.0 size=N/A time=00:13:57.25 bitrate=N/A speed=15.2x    frame=20258 fps=364 q=-0.0 size=N/A time=00:14:04.92 bitrate=N/A speed=15.2x    frame=20443 fps=364 q=-0.0 size=N/A time=00:14:12.64 bitrate=N/A speed=15.2x    frame=20627 fps=364 q=-0.0 size=N/A time=00:14:20.31 bitrate=N/A speed=15.2x    frame=20821 fps=364 q=-0.0 size=N/A time=00:14:28.40 bitrate=N/A speed=15.2x    frame=21019 fps=364 q=-0.0 size=N/A time=00:14:36.66 bitrate=N/A speed=15.2x    frame=21218 fps=364 q=-0.0 size=N/A time=00:14:44.96 bitrate=N/A speed=15.2x    frame=21413 fps=364 q=-0.0 size=N/A time=00:14:53.10 bitrate=N/A speed=15.2x    frame=21603 fps=364 q=-0.0 size=N/A time=00:15:01.02 bitrate=N/A speed=15.2x    frame=21799 fps=364 q=-0.0 size=N/A time=00:15:09.19 bitrate=N/A speed=15.2x    frame=21989 fps=364 q=-0.0 size=N/A time=00:15:17.12 bitrate=N/A speed=15.2x    frame=22182 fps=364 q=-0.0 size=N/A time=00:15:25.17 bitrate=N/A speed=15.2x    frame=22373 fps=364 q=-0.0 size=N/A time=00:15:33.14 bitrate=N/A speed=15.2x    frame=22534 fps=364 q=-0.0 size=N/A time=00:15:39.85 bitrate=N/A speed=15.2x    frame=22722 fps=364 q=-0.0 size=N/A time=00:15:47.69 bitrate=N/A speed=15.2x    frame=22912 fps=364 q=-0.0 size=N/A time=00:15:55.62 bitrate=N/A speed=15.2x    frame=23100 fps=364 q=-0.0 size=N/A time=00:16:03.46 bitrate=N/A speed=15.2x    frame=23285 fps=364 q=-0.0 size=N/A time=00:16:11.17 bitrate=N/A speed=15.2x    frame=23474 fps=364 q=-0.0 size=N/A time=00:16:19.06 bitrate=N/A speed=15.2x    frame=23666 fps=364 q=-0.0 size=N/A time=00:16:27.06 bitrate=N/A speed=15.2x    frame=23844 fps=364 q=-0.0 size=N/A time=00:16:34.49 bitrate=N/A speed=15.2x    frame=24033 fps=364 q=-0.0 size=N/A time=00:16:42.37 bitrate=N/A speed=15.2x    frame=24228 fps=364 q=-0.0 size=N/A time=00:16:50.50 bitrate=N/A speed=15.2x    frame=24416 fps=364 q=-0.0 size=N/A time=00:16:58.35 bitrate=N/A speed=15.2x    frame=24614 fps=364 q=-0.0 size=N/A time=00:17:06.60 bitrate=N/A speed=15.2x    frame=24806 fps=364 q=-0.0 size=N/A time=00:17:14.61 bitrate=N/A speed=15.2x    frame=25004 fps=364 q=-0.0 size=N/A time=00:17:22.87 bitrate=N/A speed=15.2x    frame=25198 fps=364 q=-0.0 size=N/A time=00:17:30.96 bitrate=N/A speed=15.2x    frame=25397 fps=365 q=-0.0 size=N/A time=00:17:39.26 bitrate=N/A speed=15.2x    frame=25526 fps=364 q=-0.0 size=N/A time=00:17:44.64 bitrate=N/A speed=15.2x    frame=25707 fps=364 q=-0.0 size=N/A time=00:17:52.19 bitrate=N/A speed=15.2x    frame=25905 fps=364 q=-0.0 size=N/A time=00:18:00.45 bitrate=N/A speed=15.2x    frame=26090 fps=364 q=-0.0 size=N/A time=00:18:08.17 bitrate=N/A speed=15.2x    frame=26283 fps=364 q=-0.0 size=N/A time=00:18:16.22 bitrate=N/A speed=15.2x    frame=26480 fps=364 q=-0.0 size=N/A time=00:18:24.43 bitrate=N/A speed=15.2x    frame=26640 fps=364 q=-0.0 size=N/A time=00:18:31.11 bitrate=N/A speed=15.2x    frame=26813 fps=363 q=-0.0 size=N/A time=00:18:38.32 bitrate=N/A speed=15.2x    frame=27003 fps=363 q=-0.0 size=N/A time=00:18:46.25 bitrate=N/A speed=15.2x    frame=27197 fps=364 q=-0.0 size=N/A time=00:18:54.34 bitrate=N/A speed=15.2x    frame=27382 fps=364 q=-0.0 size=N/A time=00:19:02.05 bitrate=N/A speed=15.2x    frame=27558 fps=363 q=-0.0 size=N/A time=00:19:09.39 bitrate=N/A speed=15.2x    frame=27726 fps=363 q=-0.0 size=N/A time=00:19:16.40 bitrate=N/A speed=15.1x    frame=27888 fps=363 q=-0.0 size=N/A time=00:19:23.16 bitrate=N/A speed=15.1x    frame=28065 fps=363 q=-0.0 size=N/A time=00:19:30.54 bitrate=N/A speed=15.1x    frame=28235 fps=362 q=-0.0 size=N/A time=00:19:37.63 bitrate=N/A speed=15.1x    frame=28422 fps=362 q=-0.0 size=N/A time=00:19:45.43 bitrate=N/A speed=15.1x    frame=28617 fps=363 q=-0.0 size=N/A time=00:19:53.56 bitrate=N/A speed=15.1x    frame=28806 fps=363 q=-0.0 size=N/A time=00:20:01.45 bitrate=N/A speed=15.1x    frame=29001 fps=363 q=-0.0 size=N/A time=00:20:09.58 bitrate=N/A speed=15.1x    frame=29181 fps=363 q=-0.0 size=N/A time=00:20:17.09 bitrate=N/A speed=15.1x    frame=29369 fps=363 q=-0.0 size=N/A time=00:20:24.93 bitrate=N/A speed=15.1x    frame=29555 fps=363 q=-0.0 size=N/A time=00:20:32.68 bitrate=N/A speed=15.1x    frame=29749 fps=363 q=-0.0 size=N/A time=00:20:40.78 bitrate=N/A speed=15.1x    frame=29900 fps=362 q=-0.0 size=N/A time=00:20:47.07 bitrate=N/A speed=15.1x    frame=30008 fps=361 q=-0.0 size=N/A time=00:20:51.58 bitrate=N/A speed=15.1x    frame=30186 fps=361 q=-0.0 size=N/A time=00:20:59.00 bitrate=N/A speed=15.1x    frame=30373 fps=361 q=-0.0 size=N/A time=00:21:06.80 bitrate=N/A speed=15.1x    frame=30562 fps=361 q=-0.0 size=N/A time=00:21:14.69 bitrate=N/A speed=15.1x    frame=30747 fps=361 q=-0.0 size=N/A time=00:21:22.40 bitrate=N/A speed=15.1x    frame=30939 fps=361 q=-0.0 size=N/A time=00:21:30.41 bitrate=N/A speed=15.1x    frame=31123 fps=361 q=-0.0 size=N/A time=00:21:38.08 bitrate=N/A speed=15.1x    frame=31316 fps=361 q=-0.0 size=N/A time=00:21:46.13 bitrate=N/A speed=15.1x    frame=31506 fps=361 q=-0.0 size=N/A time=00:21:54.06 bitrate=N/A speed=15.1x    frame=31678 fps=361 q=-0.0 size=N/A time=00:22:01.23 bitrate=N/A speed=15.1x    frame=31873 fps=361 q=-0.0 size=N/A time=00:22:09.36 bitrate=N/A speed=15.1x    frame=32060 fps=361 q=-0.0 size=N/A time=00:22:17.16 bitrate=N/A speed=15.1x    frame=32247 fps=361 q=-0.0 size=N/A time=00:22:24.96 bitrate=N/A speed=15.1x    frame=32401 fps=361 q=-0.0 size=N/A time=00:22:31.39 bitrate=N/A speed=15.1x    frame=32599 fps=361 q=-0.0 size=N/A time=00:22:39.64 bitrate=N/A speed=15.1x    frame=32751 fps=361 q=-0.0 size=N/A time=00:22:45.98 bitrate=N/A speed=  15x    frame=32925 fps=361 q=-0.0 size=N/A time=00:22:53.24 bitrate=N/A speed=  15x    frame=33099 fps=360 q=-0.0 size=N/A time=00:23:00.50 bitrate=N/A speed=  15x    frame=33270 fps=360 q=-0.0 size=N/A time=00:23:07.63 bitrate=N/A speed=  15x    frame=33451 fps=360 q=-0.0 size=N/A time=00:23:15.18 bitrate=N/A speed=  15x    frame=33638 fps=360 q=-0.0 size=N/A time=00:23:22.98 bitrate=N/A speed=  15x    frame=33815 fps=360 q=-0.0 size=N/A time=00:23:30.36 bitrate=N/A speed=  15x    frame=34011 fps=360 q=-0.0 size=N/A time=00:23:38.54 bitrate=N/A speed=  15x    [Parsed_psnr_16 @ 00000174d67d2740] PSNR y:47.985231 u:49.840383 v:49.964751 average:48.535229 min:40.680376 max:79.231430
[out#0/null @ 00000174d47d3a00] video:14632KiB audio:266312KiB subtitle:0KiB other streams:0KiB global headers:0KiB muxing overhead: unknown
frame=34053 fps=360 q=-0.0 Lsize=N/A time=00:23:40.29 bitrate=N/A speed=  15x    
